<?xml version="1.0" encoding="UTF-8" standalone="no"?>
<!-- Created with Inkscape (http://www.inkscape.org/) -->

<svg
   width="41.109001mm"
   height="41.108997mm"
   viewBox="0 0 41.109 41.108996"
   version="1.1"
   id="svg1"
   xml:space="preserve"
   inkscape:version="1.4 (e7c3feb100, 2024-10-09)"
   sodipodi:docname="çizim.svg"
   inkscape:export-filename="çizim_plain.svg"
   inkscape:export-xdpi="96"
   inkscape:export-ydpi="96"
   xmlns:inkscape="http://www.inkscape.org/namespaces/inkscape"
   xmlns:sodipodi="http://sodipodi.sourceforge.net/DTD/sodipodi-0.dtd"
   xmlns="http://www.w3.org/2000/svg"
   xmlns:svg="http://www.w3.org/2000/svg"><sodipodi:namedview
     id="namedview1"
     pagecolor="#3d3d3d"
     bordercolor="#000000"
     borderopacity="0.25"
     inkscape:showpageshadow="2"
     inkscape:pageopacity="0.0"
     inkscape:pagecheckerboard="0"
     inkscape:deskcolor="#d1d1d1"
     inkscape:document-units="mm"
     showgrid="true"
     inkscape:zoom="6.0926015"
     inkscape:cx="67.376801"
     inkscape:cy="77.388945"
     inkscape:window-width="1359"
     inkscape:window-height="755"
     inkscape:window-x="2"
     inkscape:window-y="0"
     inkscape:window-maximized="0"
     inkscape:current-layer="layer1"><inkscape:grid
       id="grid1"
       units="mm"
       originx="-59.445502"
       originy="-139.44549"
       spacingx="0.99999998"
       spacingy="1"
       empcolor="#0099e5"
       empopacity="0.30196078"
       color="#0099e5"
       opacity="0.14901961"
       empspacing="5"
       enabled="true"
       visible="true" /></sodipodi:namedview><defs
     id="defs1" /><g
     inkscape:label="Katman 1"
     inkscape:groupmode="layer"
     id="layer1"
     transform="translate(-59.4455,-139.44549)"
     style="display:inline"><ellipse
       style="fill:#f7f7f7;fill-opacity:1;stroke:#000000;stroke-width:1.109;stroke-linecap:round;stroke-linejoin:round;stroke-dasharray:none;stroke-opacity:1"
       id="path26"
       cx="80"
       cy="159.99998"
       rx="20"
       ry="19.999998" /><path
       id="ellipse50"
       style="display:inline;opacity:1;fill:#000000;fill-opacity:1;stroke:#000000;stroke-width:1.109;stroke-linecap:round;stroke-linejoin:round"
       d="m 99.204499,159.56745 c 0,4.30592 -1.300666,9.01628 -4.204497,12.43255 -1.303352,1.53335 -2.842386,2.89538 -4.583382,4 -1.345288,0.85354 -2.882522,1.47955 -4.078522,2.37387 -1,0.74776 -4.810035,1.56765 -4.810035,1.56765 0,0 5.826072,-3.75235 9.471939,-8.94152 2.224555,-3.16622 3,-7.5019 3,-10 0,-3.01824 -0.513652,-7.59892 -2,-11 -2.321309,-5.31167 -6,-9 -6,-9 0,0 4.808296,1.75826 8.208752,5.60811 3.195413,3.6177 4.995745,9.21353 4.995745,12.95934 z"
       sodipodi:nodetypes="sssscssscss"
       transform="translate(-1.1875e-6)" /><ellipse
       style="display:inline;fill:#00ffff;fill-opacity:1;stroke:#000000;stroke-width:0.409001;stroke-linecap:round;stroke-linejoin:round;stroke-opacity:1"
       id="path27"
       cx="80"
       cy="159.99998"
       rx="10"
       ry="9.999999" /><ellipse
       style="display:inline;fill:#000000;fill-opacity:1;stroke:#ffffff;stroke-width:0.409001;stroke-linecap:round;stroke-linejoin:round;stroke-opacity:1"
       id="path28"
       cx="80"
       cy="159.99998"
       rx="5"
       ry="4.9999995" /><path
       id="ellipse52"
       style="display:inline;fill:#000000;fill-opacity:1;stroke:none;stroke-width:0.409001;stroke-linecap:round;stroke-linejoin:round"
       d="m 90,159.99998 c 2e-6,2.64484 -1.609819,6.21167 -4.000002,8.00002 C 83.399093,169.946 80,169.99998 80,169.99998 c 0,0 3.817526,-2.2231 4.999998,-3.99998 1.344429,-2.02025 2.257204,-4.58697 2,-7 -0.34938,-3.27782 -4.659995,-8.72238 -4.659995,-8.72238 0,0 2.498843,0.46805 4.659995,2.72237 1.574326,1.64221 3,4.67237 3.000002,6.99999 z"
       sodipodi:nodetypes="sscaacss" /><path
       id="ellipse53"
       style="display:inline;fill:#ffffff;fill-opacity:1;stroke:none;stroke-width:0.406665;stroke-linecap:round;stroke-linejoin:round"
       d="m 74.902289,159.99998 c 0,1.09263 0.465187,2.46197 1.285265,3.36718 0.2752,0.30377 0.799249,0.70528 1.102116,0.92456 1.075577,0.77872 2.143161,0.49815 2.143161,0.49815 0,0 -1.295609,-1.0815 -1.725879,-1.78987 -0.365153,-0.60117 -0.617217,-1.29805 -0.672781,-2 -0.104907,-1.32534 0.02203,-2.77004 0.660076,-3.93247 0.498575,-0.90832 2.290074,-2.07298 2.305753,-2.06754 0,0 -1.95474,0.12193 -3.097713,0.93486 -1.340286,0.95326 -1.999998,2.57471 -1.999998,4.06513 z"
       sodipodi:nodetypes="ssscaaacss" /></g></svg>
