{"asset":{"version":"2.0","generator":"Blockbench 4.11.2 glTF exporter"},"scenes":[{"nodes":[13],"name":"blockbench_export"}],"scene":0,"nodes":[{"translation":[0,-1.625,0],"name":"cuboid","mesh":0},{"translation":[0,1.625,0],"name":"bone4","children":[0]},{"translation":[0,-1.625,0],"name":"cuboid","mesh":1},{"translation":[0.5625,1.625,0],"name":"bone5","children":[2]},{"translation":[-0.28125,-1.6249999999999993,0],"name":"bone3","children":[1,3]},{"translation":[-0.03125,-0.24999999999999942,0],"name":"cuboid","mesh":2},{"rotation":[0.08715574274765817,0,0,0.9961946980917455],"translation":[-0.03125,0.8750000000000006,0],"name":"cuboid","mesh":3},{"rotation":[0.1521233861899167,0,0,0.9883615104677607],"translation":[-0.03125,1.1875000000000007,0],"name":"cuboid","mesh":4},{"rotation":[0.19509032201612825,0,0,0.9807852804032304],"translation":[-0.03125,1.3125000000000007,0],"name":"cuboid","mesh":5},{"rotation":[0.23768589232617307,0,0,0.9713420698132614],"translation":[-0.03125,1.4062500000000002,0],"name":"cuboid","mesh":6},{"rotation":[0.23768589232617307,0,0,0.9713420698132614],"translation":[-0.03125,1.425,0],"name":"cuboid","mesh":7},{"translation":[0,5.551115123125783e-17,0],"name":"bone2","children":[5,6,7,8,9,10]},{"translation":[0.03125,0.24999999999999936,0],"name":"bone","children":[4,11]},{"children":[12]}],"bufferViews":[{"buffer":0,"byteOffset":0,"byteLength":288,"target":34962,"byteStride":12},{"buffer":0,"byteOffset":288,"byteLength":288,"target":34962,"byteStride":12},{"buffer":0,"byteOffset":576,"byteLength":192,"target":34962,"byteStride":8},{"buffer":0,"byteOffset":768,"byteLength":72,"target":34963},{"buffer":0,"byteOffset":840,"byteLength":288,"target":34962,"byteStride":12},{"buffer":0,"byteOffset":1128,"byteLength":288,"target":34962,"byteStride":12},{"buffer":0,"byteOffset":1416,"byteLength":192,"target":34962,"byteStride":8},{"buffer":0,"byteOffset":1608,"byteLength":72,"target":34963},{"buffer":0,"byteOffset":1680,"byteLength":288,"target":34962,"byteStride":12},{"buffer":0,"byteOffset":1968,"byteLength":288,"target":34962,"byteStride":12},{"buffer":0,"byteOffset":2256,"byteLength":192,"target":34962,"byteStride":8},{"buffer":0,"byteOffset":2448,"byteLength":72,"target":34963},{"buffer":0,"byteOffset":2520,"byteLength":288,"target":34962,"byteStride":12},{"buffer":0,"byteOffset":2808,"byteLength":288,"target":34962,"byteStride":12},{"buffer":0,"byteOffset":3096,"byteLength":192,"target":34962,"byteStride":8},{"buffer":0,"byteOffset":3288,"byteLength":72,"target":34963},{"buffer":0,"byteOffset":3360,"byteLength":288,"target":34962,"byteStride":12},{"buffer":0,"byteOffset":3648,"byteLength":288,"target":34962,"byteStride":12},{"buffer":0,"byteOffset":3936,"byteLength":192,"target":34962,"byteStride":8},{"buffer":0,"byteOffset":4128,"byteLength":72,"target":34963},{"buffer":0,"byteOffset":4200,"byteLength":288,"target":34962,"byteStride":12},{"buffer":0,"byteOffset":4488,"byteLength":288,"target":34962,"byteStride":12},{"buffer":0,"byteOffset":4776,"byteLength":192,"target":34962,"byteStride":8},{"buffer":0,"byteOffset":4968,"byteLength":72,"target":34963},{"buffer":0,"byteOffset":5040,"byteLength":288,"target":34962,"byteStride":12},{"buffer":0,"byteOffset":5328,"byteLength":288,"target":34962,"byteStride":12},{"buffer":0,"byteOffset":5616,"byteLength":192,"target":34962,"byteStride":8},{"buffer":0,"byteOffset":5808,"byteLength":72,"target":34963},{"buffer":0,"byteOffset":5880,"byteLength":288,"target":34962,"byteStride":12},{"buffer":0,"byteOffset":6168,"byteLength":288,"target":34962,"byteStride":12},{"buffer":0,"byteOffset":6456,"byteLength":192,"target":34962,"byteStride":8},{"buffer":0,"byteOffset":6648,"byteLength":72,"target":34963},{"buffer":0,"byteOffset":6720,"byteLength":12},{"buffer":0,"byteOffset":6732,"byteLength":36},{"buffer":0,"byteOffset":6768,"byteLength":40},{"buffer":0,"byteOffset":6808,"byteLength":160},{"buffer":0,"byteOffset":6968,"byteLength":40},{"buffer":0,"byteOffset":7008,"byteLength":160},{"buffer":0,"byteOffset":7168,"byteLength":4},{"buffer":0,"byteOffset":7172,"byteLength":16},{"buffer":0,"byteOffset":7188,"byteLength":12},{"buffer":0,"byteOffset":7200,"byteLength":36},{"buffer":0,"byteOffset":7236,"byteLength":40},{"buffer":0,"byteOffset":7276,"byteLength":160},{"buffer":0,"byteOffset":7436,"byteLength":40},{"buffer":0,"byteOffset":7476,"byteLength":160},{"buffer":0,"byteOffset":7636,"byteLength":4},{"buffer":0,"byteOffset":7640,"byteLength":16},{"buffer":0,"byteOffset":7656,"byteLength":12},{"buffer":0,"byteOffset":7668,"byteLength":36},{"buffer":0,"byteOffset":7704,"byteLength":40},{"buffer":0,"byteOffset":7744,"byteLength":160},{"buffer":0,"byteOffset":7904,"byteLength":40},{"buffer":0,"byteOffset":7944,"byteLength":160},{"buffer":0,"byteOffset":8104,"byteLength":4},{"buffer":0,"byteOffset":8108,"byteLength":16},{"buffer":0,"byteOffset":8124,"byteLength":12},{"buffer":0,"byteOffset":8136,"byteLength":36},{"buffer":0,"byteOffset":8172,"byteLength":40},{"buffer":0,"byteOffset":8212,"byteLength":160},{"buffer":0,"byteOffset":8372,"byteLength":40},{"buffer":0,"byteOffset":8412,"byteLength":160},{"buffer":0,"byteOffset":8572,"byteLength":156},{"buffer":0,"byteOffset":8728,"byteLength":468}],"buffers":[{"byteLength":9196,"uri":"data:application/octet-stream;base64,"}],"accessors":[{"bufferView":0,"componentType":5126,"count":24,"max":[0.125,1.75,0.125],"min":[-0.125,1.375,-0.125],"type":"VEC3"},{"bufferView":1,"componentType":5126,"count":24,"max":[1,1,1],"min":[-1,-1,-1],"type":"VEC3"},{"bufferView":2,"componentType":5126,"count":24,"max":[0.5390625,0.546875],"min":[0.0390625,0.1171875],"type":"VEC2"},{"bufferView":3,"componentType":5123,"count":36,"max":[23],"min":[0],"type":"SCALAR"},{"bufferView":4,"componentType":5126,"count":24,"max":[0.125,1.75,0.125],"min":[-0.125,1.375,-0.125],"type":"VEC3"},{"bufferView":5,"componentType":5126,"count":24,"max":[1,1,1],"min":[-1,-1,-1],"type":"VEC3"},{"bufferView":6,"componentType":5126,"count":24,"max":[0.5,0.546875],"min":[0,0.4765625],"type":"VEC2"},{"bufferView":7,"componentType":5123,"count":36,"max":[23],"min":[0],"type":"SCALAR"},{"bufferView":8,"componentType":5126,"count":24,"max":[0.5,1.375,0.5],"min":[-0.5,0.25,-0.5],"type":"VEC3"},{"bufferView":9,"componentType":5126,"count":24,"max":[1,1,1],"min":[-1,-1,-1],"type":"VEC3"},{"bufferView":10,"componentType":5126,"count":24,"max":[0.390625,0.4140625],"min":[0,0],"type":"VEC2"},{"bufferView":11,"componentType":5123,"count":36,"max":[23],"min":[0],"type":"SCALAR"},{"bufferView":12,"componentType":5126,"count":24,"max":[0.5625,0.4375,0.5071045756340027],"min":[-0.5625,0.11523228883743286,-0.5625],"type":"VEC3"},{"bufferView":13,"componentType":5126,"count":24,"max":[0.9805004000663757,0.9999465346336365,0.9805806875228882],"min":[-0.9805004000663757,-0.9999582767486572,-0.9805806875228882],"type":"VEC3"},{"bufferView":14,"componentType":5126,"count":24,"max":[0.5390625,0.586830735206604],"min":[0,0],"type":"VEC2"},{"bufferView":15,"componentType":5123,"count":36,"max":[23],"min":[0],"type":"SCALAR"},{"bufferView":16,"componentType":5126,"count":24,"max":[0.4375,0.25,0.4375],"min":[-0.4375,0.06539268791675568,-0.4375],"type":"VEC3"},{"bufferView":17,"componentType":5126,"count":24,"max":[1,1,1],"min":[-1,-0.9975854158401489,-0.9948577284812927],"type":"VEC3"},{"bufferView":18,"componentType":5126,"count":24,"max":[0.5387812852859497,0.577860951423645],"min":[0,0],"type":"VEC2"},{"bufferView":19,"componentType":5123,"count":36,"max":[23],"min":[0],"type":"SCALAR"},{"bufferView":20,"componentType":5126,"count":24,"max":[0.375,0.25,0.375],"min":[-0.375,0.06725753098726273,-0.375],"type":"VEC3"},{"bufferView":21,"componentType":5126,"count":24,"max":[1,1,1],"min":[-1,-0.996852695941925,-0.9915434122085571],"type":"VEC3"},{"bufferView":22,"componentType":5126,"count":24,"max":[0.578125,0.5],"min":[0.234375,0.1171875],"type":"VEC2"},{"bufferView":23,"componentType":5123,"count":36,"max":[23],"min":[0],"type":"SCALAR"},{"bufferView":24,"componentType":5126,"count":24,"max":[0.3125,0.23538145422935486,0.3038422167301178],"min":[-0.3125,0.10081182420253754,-0.3125],"type":"VEC3"},{"bufferView":25,"componentType":5126,"count":24,"max":[1,0.9996361136436462,1],"min":[-1,-0.9925592541694641,-0.9713420867919922],"type":"VEC3"},{"bufferView":26,"componentType":5126,"count":24,"max":[0.5859375,0.5770710110664368],"min":[0.1484375,0.171875],"type":"VEC2"},{"bufferView":27,"componentType":5123,"count":36,"max":[23],"min":[0],"type":"SCALAR"},{"bufferView":28,"componentType":5126,"count":24,"max":[0.125,0.38654372096061707,0.125],"min":[-0.125,0.125,-0.125],"type":"VEC3"},{"bufferView":29,"componentType":5126,"count":24,"max":[1,0.9993337988853455,0.984894871711731],"min":[-1,-1,-0.9964249134063721],"type":"VEC3"},{"bufferView":30,"componentType":5126,"count":24,"max":[0.546875,0.5546875],"min":[0.328125,0],"type":"VEC2"},{"bufferView":31,"componentType":5123,"count":36,"max":[23],"min":[0],"type":"SCALAR"},{"bufferView":32,"componentType":5126,"count":3,"max":[0.5],"min":[0],"type":"SCALAR"},{"bufferView":33,"componentType":5126,"count":3,"max":[0.03125,0.4375,0],"min":[0.03125,0.25,0],"type":"VEC3"},{"bufferView":34,"componentType":5126,"count":10,"max":[0.5],"min":[0],"type":"SCALAR"},{"bufferView":35,"componentType":5126,"count":10,"max":[0.3826834261417389,0,0,1],"min":[-0.3826834261417389,0,0,0.9238795042037964],"type":"VEC4"},{"bufferView":36,"componentType":5126,"count":10,"max":[0.5],"min":[0],"type":"SCALAR"},{"bufferView":37,"componentType":5126,"count":10,"max":[0.3826834261417389,0,0,1],"min":[-0.3826834261417389,0,0,0.9238795042037964],"type":"VEC4"},{"bufferView":38,"componentType":5126,"count":1,"max":[0],"min":[0],"type":"SCALAR"},{"bufferView":39,"componentType":5126,"count":1,"max":[0,0.7071067690849304,0,0.7071067690849304],"min":[0,0.7071067690849304,0,0.7071067690849304],"type":"VEC4"},{"bufferView":40,"componentType":5126,"count":3,"max":[0.5],"min":[0],"type":"SCALAR"},{"bufferView":41,"componentType":5126,"count":3,"max":[0.03125,0.4375,0],"min":[0.03125,0.25,0],"type":"VEC3"},{"bufferView":42,"componentType":5126,"count":10,"max":[0.5],"min":[0],"type":"SCALAR"},{"bufferView":43,"componentType":5126,"count":10,"max":[0.3826834261417389,0,0,1],"min":[-0.3826834261417389,0,0,0.9238795042037964],"type":"VEC4"},{"bufferView":44,"componentType":5126,"count":10,"max":[0.5],"min":[0],"type":"SCALAR"},{"bufferView":45,"componentType":5126,"count":10,"max":[0.3826834261417389,0,0,1],"min":[-0.3826834261417389,0,0,0.9238795042037964],"type":"VEC4"},{"bufferView":46,"componentType":5126,"count":1,"max":[0],"min":[0],"type":"SCALAR"},{"bufferView":47,"componentType":5126,"count":1,"max":[0,-0.7071067690849304,0,0.7071067690849304],"min":[0,-0.7071067690849304,0,0.7071067690849304],"type":"VEC4"},{"bufferView":48,"componentType":5126,"count":3,"max":[0.5],"min":[0],"type":"SCALAR"},{"bufferView":49,"componentType":5126,"count":3,"max":[0.03125,0.4375,0],"min":[0.03125,0.25,0],"type":"VEC3"},{"bufferView":50,"componentType":5126,"count":10,"max":[0.5],"min":[0],"type":"SCALAR"},{"bufferView":51,"componentType":5126,"count":10,"max":[0.3826834261417389,0,0,1],"min":[-0.3826834261417389,0,0,0.9238795042037964],"type":"VEC4"},{"bufferView":52,"componentType":5126,"count":10,"max":[0.5],"min":[0],"type":"SCALAR"},{"bufferView":53,"componentType":5126,"count":10,"max":[0.3826834261417389,0,0,1],"min":[-0.3826834261417389,0,0,0.9238795042037964],"type":"VEC4"},{"bufferView":54,"componentType":5126,"count":1,"max":[0],"min":[0],"type":"SCALAR"},{"bufferView":55,"componentType":5126,"count":1,"max":[0,-1,0,6.123234262925839e-17],"min":[0,-1,0,6.123234262925839e-17],"type":"VEC4"},{"bufferView":56,"componentType":5126,"count":3,"max":[0.5],"min":[0],"type":"SCALAR"},{"bufferView":57,"componentType":5126,"count":3,"max":[0.03125,0.4375,0],"min":[0.03125,0.25,0],"type":"VEC3"},{"bufferView":58,"componentType":5126,"count":10,"max":[0.5],"min":[0],"type":"SCALAR"},{"bufferView":59,"componentType":5126,"count":10,"max":[0.3826834261417389,0,0,1],"min":[-0.3826834261417389,0,0,0.9238795042037964],"type":"VEC4"},{"bufferView":60,"componentType":5126,"count":10,"max":[0.5],"min":[0],"type":"SCALAR"},{"bufferView":61,"componentType":5126,"count":10,"max":[0.3826834261417389,0,0,1],"min":[-0.3826834261417389,0,0,0.9238795042037964],"type":"VEC4"},{"bufferView":62,"componentType":5126,"count":39,"max":[2],"min":[0],"type":"SCALAR"},{"bufferView":63,"componentType":5126,"count":39,"max":[0,5.551115123125783e-17,0],"min":[0,-0.125,0],"type":"VEC3"}],"materials":[{"pbrMetallicRoughness":{"metallicFactor":0,"roughnessFactor":1,"baseColorTexture":{"index":0}},"alphaMode":"MASK","alphaCutoff":0.05}],"textures":[{"sampler":0,"source":0,"name":"ana karakter"}],"samplers":[{"magFilter":9728,"minFilter":9728,"wrapS":33071,"wrapT":33071}],"images":[{"mimeType":"image/png","uri":"data:image/png;base64,"}],"meshes":[{"primitives":[{"mode":4,"attributes":{"POSITION":0,"NORMAL":1,"TEXCOORD_0":2},"indices":3,"material":0}]},{"primitives":[{"mode":4,"attributes":{"POSITION":4,"NORMAL":5,"TEXCOORD_0":6},"indices":7,"material":0}]},{"primitives":[{"mode":4,"attributes":{"POSITION":8,"NORMAL":9,"TEXCOORD_0":10},"indices":11,"material":0}]},{"primitives":[{"mode":4,"attributes":{"POSITION":12,"NORMAL":13,"TEXCOORD_0":14},"indices":15,"material":0}]},{"primitives":[{"mode":4,"attributes":{"POSITION":16,"NORMAL":17,"TEXCOORD_0":18},"indices":19,"material":0}]},{"primitives":[{"mode":4,"attributes":{"POSITION":20,"NORMAL":21,"TEXCOORD_0":22},"indices":23,"material":0}]},{"primitives":[{"mode":4,"attributes":{"POSITION":24,"NORMAL":25,"TEXCOORD_0":26},"indices":27,"material":0}]},{"primitives":[{"mode":4,"attributes":{"POSITION":28,"NORMAL":29,"TEXCOORD_0":30},"indices":31,"material":0}]}],"animations":[{"name":"walk","samplers":[{"input":32,"output":33,"interpolation":"LINEAR"},{"input":34,"output":35,"interpolation":"LINEAR"},{"input":36,"output":37,"interpolation":"LINEAR"}],"channels":[{"sampler":0,"target":{"node":12,"path":"translation"}},{"sampler":1,"target":{"node":1,"path":"rotation"}},{"sampler":2,"target":{"node":3,"path":"rotation"}}]},{"name":"walk left","samplers":[{"input":38,"output":39,"interpolation":"LINEAR"},{"input":40,"output":41,"interpolation":"LINEAR"},{"input":42,"output":43,"interpolation":"LINEAR"},{"input":44,"output":45,"interpolation":"LINEAR"}],"channels":[{"sampler":0,"target":{"node":12,"path":"rotation"}},{"sampler":1,"target":{"node":12,"path":"translation"}},{"sampler":2,"target":{"node":1,"path":"rotation"}},{"sampler":3,"target":{"node":3,"path":"rotation"}}]},{"name":"walk right","samplers":[{"input":46,"output":47,"interpolation":"LINEAR"},{"input":48,"output":49,"interpolation":"LINEAR"},{"input":50,"output":51,"interpolation":"LINEAR"},{"input":52,"output":53,"interpolation":"LINEAR"}],"channels":[{"sampler":0,"target":{"node":12,"path":"rotation"}},{"sampler":1,"target":{"node":12,"path":"translation"}},{"sampler":2,"target":{"node":1,"path":"rotation"}},{"sampler":3,"target":{"node":3,"path":"rotation"}}]},{"name":"walk back","samplers":[{"input":54,"output":55,"interpolation":"LINEAR"},{"input":56,"output":57,"interpolation":"LINEAR"},{"input":58,"output":59,"interpolation":"LINEAR"},{"input":60,"output":61,"interpolation":"LINEAR"}],"channels":[{"sampler":0,"target":{"node":12,"path":"rotation"}},{"sampler":1,"target":{"node":12,"path":"translation"}},{"sampler":2,"target":{"node":1,"path":"rotation"}},{"sampler":3,"target":{"node":3,"path":"rotation"}}]},{"name":"idle","samplers":[{"input":62,"output":63,"interpolation":"LINEAR"}],"channels":[{"sampler":0,"target":{"node":11,"path":"translation"}}]}]}