{"asset":{"version":"2.0","generator":"Blockbench 4.11.2 glTF exporter"},"scenes":[{"nodes":[11],"name":"blockbench_export"}],"scene":0,"nodes":[{"name":"plane","mesh":0},{"rotation":[0.7071067811865475,0,0,0.7071067811865476],"translation":[0,2.8125,-2.8125],"name":"plane","mesh":1},{"rotation":[0.4999999999999996,0.4999999999999994,-0.5000000000000003,0.5000000000000007],"translation":[-2.8125,2.8125,0],"name":"plane","mesh":2},{"rotation":[0.4999999999999996,-0.4999999999999994,0.5000000000000003,0.5000000000000007],"translation":[2.8125,2.8125,0],"name":"plane","mesh":3},{"translation":[0,0,-2.125],"name":"cuboid","mesh":4},{"translation":[0,0.4375,-2.3125],"name":"cuboid","mesh":5},{"translation":[0,0.6875,-2.4125000000000005],"name":"cuboid","mesh":6},{"translation":[0,1,-2.249999999999999],"name":"cuboid","mesh":7},{"translation":[0,0.4375,-1.9375],"name":"cuboid","mesh":8},{"translation":[0.5625,0.48124999999999984,-1.9375],"name":"cuboid","mesh":9},{"translation":[0,0.6875,-2.3500000000000005],"name":"cuboid","mesh":10},{"children":[0,1,2,3,4,5,6,7,8,9,10]}],"bufferViews":[{"buffer":0,"byteOffset":0,"byteLength":48,"target":34962,"byteStride":12},{"buffer":0,"byteOffset":48,"byteLength":48,"target":34962,"byteStride":12},{"buffer":0,"byteOffset":96,"byteLength":32,"target":34962,"byteStride":8},{"buffer":0,"byteOffset":128,"byteLength":12,"target":34963},{"buffer":0,"byteOffset":140,"byteLength":48,"target":34962,"byteStride":12},{"buffer":0,"byteOffset":188,"byteLength":48,"target":34962,"byteStride":12},{"buffer":0,"byteOffset":236,"byteLength":32,"target":34962,"byteStride":8},{"buffer":0,"byteOffset":268,"byteLength":12,"target":34963},{"buffer":0,"byteOffset":280,"byteLength":48,"target":34962,"byteStride":12},{"buffer":0,"byteOffset":328,"byteLength":48,"target":34962,"byteStride":12},{"buffer":0,"byteOffset":376,"byteLength":32,"target":34962,"byteStride":8},{"buffer":0,"byteOffset":408,"byteLength":12,"target":34963},{"buffer":0,"byteOffset":420,"byteLength":48,"target":34962,"byteStride":12},{"buffer":0,"byteOffset":468,"byteLength":48,"target":34962,"byteStride":12},{"buffer":0,"byteOffset":516,"byteLength":32,"target":34962,"byteStride":8},{"buffer":0,"byteOffset":548,"byteLength":12,"target":34963},{"buffer":0,"byteOffset":560,"byteLength":288,"target":34962,"byteStride":12},{"buffer":0,"byteOffset":848,"byteLength":288,"target":34962,"byteStride":12},{"buffer":0,"byteOffset":1136,"byteLength":192,"target":34962,"byteStride":8},{"buffer":0,"byteOffset":1328,"byteLength":72,"target":34963},{"buffer":0,"byteOffset":1400,"byteLength":288,"target":34962,"byteStride":12},{"buffer":0,"byteOffset":1688,"byteLength":288,"target":34962,"byteStride":12},{"buffer":0,"byteOffset":1976,"byteLength":192,"target":34962,"byteStride":8},{"buffer":0,"byteOffset":2168,"byteLength":72,"target":34963},{"buffer":0,"byteOffset":2240,"byteLength":288,"target":34962,"byteStride":12},{"buffer":0,"byteOffset":2528,"byteLength":288,"target":34962,"byteStride":12},{"buffer":0,"byteOffset":2816,"byteLength":192,"target":34962,"byteStride":8},{"buffer":0,"byteOffset":3008,"byteLength":72,"target":34963},{"buffer":0,"byteOffset":3080,"byteLength":288,"target":34962,"byteStride":12},{"buffer":0,"byteOffset":3368,"byteLength":288,"target":34962,"byteStride":12},{"buffer":0,"byteOffset":3656,"byteLength":192,"target":34962,"byteStride":8},{"buffer":0,"byteOffset":3848,"byteLength":72,"target":34963},{"buffer":0,"byteOffset":3920,"byteLength":288,"target":34962,"byteStride":12},{"buffer":0,"byteOffset":4208,"byteLength":288,"target":34962,"byteStride":12},{"buffer":0,"byteOffset":4496,"byteLength":192,"target":34962,"byteStride":8},{"buffer":0,"byteOffset":4688,"byteLength":72,"target":34963},{"buffer":0,"byteOffset":4760,"byteLength":288,"target":34962,"byteStride":12},{"buffer":0,"byteOffset":5048,"byteLength":288,"target":34962,"byteStride":12},{"buffer":0,"byteOffset":5336,"byteLength":192,"target":34962,"byteStride":8},{"buffer":0,"byteOffset":5528,"byteLength":72,"target":34963},{"buffer":0,"byteOffset":5600,"byteLength":288,"target":34962,"byteStride":12},{"buffer":0,"byteOffset":5888,"byteLength":288,"target":34962,"byteStride":12},{"buffer":0,"byteOffset":6176,"byteLength":192,"target":34962,"byteStride":8},{"buffer":0,"byteOffset":6368,"byteLength":72,"target":34963}],"buffers":[{"byteLength":6440,"uri":"data:application/octet-stream;base64,"}],"accessors":[{"bufferView":0,"componentType":5126,"count":4,"max":[2.8125,0,2.8125],"min":[-2.8125,0,-2.8125],"type":"VEC3"},{"bufferView":1,"componentType":5126,"count":4,"max":[0,1,0],"min":[0,1,0],"type":"VEC3"},{"bufferView":2,"componentType":5126,"count":4,"max":[0.3515625,0.3515625],"min":[0,0],"type":"VEC2"},{"bufferView":3,"componentType":5123,"count":6,"max":[3],"min":[0],"type":"SCALAR"},{"bufferView":4,"componentType":5126,"count":4,"max":[2.8125,0,2.8125],"min":[-2.8125,0,-2.8125],"type":"VEC3"},{"bufferView":5,"componentType":5126,"count":4,"max":[0,1,0],"min":[0,1,0],"type":"VEC3"},{"bufferView":6,"componentType":5126,"count":4,"max":[0.3515625,0.70703125],"min":[0,0.35546875],"type":"VEC2"},{"bufferView":7,"componentType":5123,"count":6,"max":[3],"min":[0],"type":"SCALAR"},{"bufferView":8,"componentType":5126,"count":4,"max":[2.8125,0,2.8125],"min":[-2.8125,0,-2.8125],"type":"VEC3"},{"bufferView":9,"componentType":5126,"count":4,"max":[0,1,0],"min":[0,1,0],"type":"VEC3"},{"bufferView":10,"componentType":5126,"count":4,"max":[0.70703125,0.3515625],"min":[0.35546875,0],"type":"VEC2"},{"bufferView":11,"componentType":5123,"count":6,"max":[3],"min":[0],"type":"SCALAR"},{"bufferView":12,"componentType":5126,"count":4,"max":[2.8125,0,2.8125],"min":[-2.8125,0,-2.8125],"type":"VEC3"},{"bufferView":13,"componentType":5126,"count":4,"max":[0,1,0],"min":[0,1,0],"type":"VEC3"},{"bufferView":14,"componentType":5126,"count":4,"max":[0.70703125,0.70703125],"min":[0.35546875,0.35546875],"type":"VEC2"},{"bufferView":15,"componentType":5123,"count":6,"max":[3],"min":[0],"type":"SCALAR"},{"bufferView":16,"componentType":5126,"count":24,"max":[1.25,0.5,0.5],"min":[-1.25,0,-0.5],"type":"VEC3"},{"bufferView":17,"componentType":5126,"count":24,"max":[1,1,1],"min":[-1,-1,-1],"type":"VEC3"},{"bufferView":18,"componentType":5126,"count":24,"max":[0.8671875,0.7734375],"min":[0,0],"type":"VEC2"},{"bufferView":19,"componentType":5123,"count":36,"max":[23],"min":[0],"type":"SCALAR"},{"bufferView":20,"componentType":5126,"count":24,"max":[0.625,0.125,0.125],"min":[-0.625,0.0625,-0.125],"type":"VEC3"},{"bufferView":21,"componentType":5126,"count":24,"max":[1,1,1],"min":[-1,-1,-1],"type":"VEC3"},{"bufferView":22,"componentType":5126,"count":24,"max":[0.7890625,0.71484375],"min":[0.45703125,0.296875],"type":"VEC2"},{"bufferView":23,"componentType":5123,"count":36,"max":[23],"min":[0],"type":"SCALAR"},{"bufferView":24,"componentType":5126,"count":24,"max":[0.1875,0.3125,0.0625],"min":[-0.1875,-0.125,-0.0625],"type":"VEC3"},{"bufferView":25,"componentType":5126,"count":24,"max":[1,1,1],"min":[-1,-1,-1],"type":"VEC3"},{"bufferView":26,"componentType":5126,"count":24,"max":[0.734375,0.73828125],"min":[0.5390625,0.39453125],"type":"VEC2"},{"bufferView":27,"componentType":5123,"count":36,"max":[23],"min":[0],"type":"SCALAR"},{"bufferView":28,"componentType":5126,"count":24,"max":[0.875,0.5625,0.0625],"min":[-0.875,-0.375,-0.0625],"type":"VEC3"},{"bufferView":29,"componentType":5126,"count":24,"max":[1,1,1],"min":[-1,-1,-1],"type":"VEC3"},{"bufferView":30,"componentType":5126,"count":24,"max":[0.8203125,0.76953125],"min":[0.3203125,0.06640625],"type":"VEC2"},{"bufferView":31,"componentType":5123,"count":36,"max":[23],"min":[0],"type":"SCALAR"},{"bufferView":32,"componentType":5126,"count":24,"max":[0.3375000059604645,0.125,0.16249999403953552],"min":[-0.3375000059604645,0.0625,-0.16249999403953552],"type":"VEC3"},{"bufferView":33,"componentType":5126,"count":24,"max":[1,1,1],"min":[-1,-1,-1],"type":"VEC3"},{"bufferView":34,"componentType":5126,"count":24,"max":[0.75390625,0.71484375],"min":[0.578125,0.34765625],"type":"VEC2"},{"bufferView":35,"componentType":5123,"count":36,"max":[23],"min":[0],"type":"SCALAR"},{"bufferView":36,"componentType":5126,"count":24,"max":[0.08749999850988388,0.16249999403953552,0.16249999403953552],"min":[-0.08749999850988388,0.02500000037252903,-0.16249999403953552],"type":"VEC3"},{"bufferView":37,"componentType":5126,"count":24,"max":[1,1,1],"min":[-1,-1,-1],"type":"VEC3"},{"bufferView":38,"componentType":5126,"count":24,"max":[0.73046875,0.62890625],"min":[0.7109375,0.46484375],"type":"VEC2"},{"bufferView":39,"componentType":5123,"count":36,"max":[23],"min":[0],"type":"SCALAR"},{"bufferView":40,"componentType":5126,"count":24,"max":[0.1875,0.3125,0.0625],"min":[-0.1875,0.25,-0.03750000149011612],"type":"VEC3"},{"bufferView":41,"componentType":5126,"count":24,"max":[1,1,1],"min":[-1,-1,-1],"type":"VEC3"},{"bufferView":42,"componentType":5126,"count":24,"max":[0.734375,0.71484375],"min":[0.625,0.5546875],"type":"VEC2"},{"bufferView":43,"componentType":5123,"count":36,"max":[23],"min":[0],"type":"SCALAR"}],"materials":[{"pbrMetallicRoughness":{"metallicFactor":0,"roughnessFactor":1,"baseColorTexture":{"index":0}},"alphaMode":"MASK","alphaCutoff":0.05}],"textures":[{"sampler":0,"source":0,"name":"texture"}],"samplers":[{"magFilter":9728,"minFilter":9728,"wrapS":33071,"wrapT":33071}],"images":[{"mimeType":"image/png","uri":"data:image/png;base64,"}],"meshes":[{"primitives":[{"mode":4,"attributes":{"POSITION":0,"NORMAL":1,"TEXCOORD_0":2},"indices":3,"material":0}]},{"primitives":[{"mode":4,"attributes":{"POSITION":4,"NORMAL":5,"TEXCOORD_0":6},"indices":7,"material":0}]},{"primitives":[{"mode":4,"attributes":{"POSITION":8,"NORMAL":9,"TEXCOORD_0":10},"indices":11,"material":0}]},{"primitives":[{"mode":4,"attributes":{"POSITION":12,"NORMAL":13,"TEXCOORD_0":14},"indices":15,"material":0}]},{"primitives":[{"mode":4,"attributes":{"POSITION":16,"NORMAL":17,"TEXCOORD_0":18},"indices":19,"material":0}]},{"primitives":[{"mode":4,"attributes":{"POSITION":20,"NORMAL":21,"TEXCOORD_0":22},"indices":23,"material":0}]},{"primitives":[{"mode":4,"attributes":{"POSITION":24,"NORMAL":25,"TEXCOORD_0":26},"indices":27,"material":0}]},{"primitives":[{"mode":4,"attributes":{"POSITION":28,"NORMAL":29,"TEXCOORD_0":30},"indices":31,"material":0}]},{"primitives":[{"mode":4,"attributes":{"POSITION":32,"NORMAL":33,"TEXCOORD_0":34},"indices":35,"material":0}]},{"primitives":[{"mode":4,"attributes":{"POSITION":36,"NORMAL":37,"TEXCOORD_0":38},"indices":39,"material":0}]},{"primitives":[{"mode":4,"attributes":{"POSITION":40,"NORMAL":41,"TEXCOORD_0":42},"indices":43,"material":0}]}]}